<svg width="128" height="37" viewBox="0 0 128 37" fill="none" xmlns="http://www.w3.org/2000/svg">
<path d="M18.9375 0.5C17.5339 0.5 16.1678 0.660642 14.8572 0.965194C8.19252 2.50937 2.94687 7.75502 1.40269 14.419C1.09814 15.7303 0.9375 17.0964 0.9375 18.5C0.9375 28.4411 8.9964 36.5 18.9375 36.5C20.3411 36.5 21.7072 36.3394 23.0185 36.0348C29.6825 34.4906 34.9281 29.2456 36.473 22.5823C36.7775 21.2711 36.9382 19.9043 36.9382 18.5C36.9382 8.5589 28.8786 0.5 18.9375 0.5ZM18.9375 29.7724C17.6089 29.7724 16.3344 29.5428 15.151 29.1205C11.9716 27.9866 9.45156 25.4665 8.31769 22.2871C7.89533 21.1037 7.66575 19.8286 7.66575 18.5C7.66575 12.2744 12.7119 7.22758 18.9375 7.22758C20.2661 7.22758 21.5406 7.45716 22.724 7.87952C25.9034 9.01339 28.4241 11.5335 29.558 14.7129C29.9803 15.8963 30.2099 17.1714 30.2099 18.5C30.2099 24.7256 25.1631 29.7724 18.9375 29.7724Z" fill="url(#paint0_linear_84_235)"/>
<path d="M18.9375 11.2349C14.9254 11.2349 11.6724 14.4879 11.6724 18.4999C11.6724 22.512 14.9254 25.765 18.9375 25.765C22.9495 25.765 26.2025 22.512 26.2025 18.4999C26.2025 14.4879 22.9502 11.2349 18.9375 11.2349ZM18.9375 22.8928C16.5118 22.8928 14.5446 20.9263 14.5446 18.4999C14.5446 16.0736 16.5118 14.107 18.9375 14.107C21.3632 14.107 23.3304 16.0736 23.3304 18.4999C23.3304 20.9263 21.3639 22.8928 18.9375 22.8928Z" fill="#FEFCFE"/>
<path d="M22.724 7.87966C21.5406 7.4573 20.2661 7.22772 18.9375 7.22772C12.7119 7.22772 7.66573 12.2746 7.66573 18.5001C7.66573 19.8288 7.89532 21.1039 8.31767 22.2873C6.87925 21.7438 5.53052 20.893 4.37256 19.7351C2.85315 18.2157 1.86319 16.3676 1.40268 14.4191C2.94686 7.75516 8.19251 2.50951 14.8572 0.965332C16.805 1.42584 18.653 2.4158 20.1724 3.93521C21.3297 5.09251 22.1805 6.44124 22.724 7.87966Z" fill="url(#paint1_linear_84_235)"/>
<path d="M36.473 22.5824C34.9281 29.2457 29.6825 34.4907 23.0185 36.0348C21.0707 35.5743 19.2226 34.5844 17.7032 33.065C16.5452 31.907 15.6945 30.5583 15.151 29.1205C16.3344 29.5429 17.6088 29.7725 18.9375 29.7725C25.163 29.7725 30.2099 24.7256 30.2099 18.5C30.2099 17.1714 29.9803 15.8963 29.558 14.7129C30.9957 15.2564 32.3444 16.1071 33.5024 17.2651C35.0218 18.7845 36.0124 20.6339 36.473 22.5824Z" fill="url(#paint2_linear_84_235)"/>
<path d="M50.2443 16.6172C50.1697 16.358 50.065 16.1289 49.93 15.93C49.7951 15.7276 49.63 15.5572 49.4347 15.4187C49.2429 15.2766 49.0227 15.1683 48.7741 15.0938C48.5291 15.0192 48.2575 14.9819 47.9592 14.9819C47.4016 14.9819 46.9116 15.1204 46.489 15.3974C46.07 15.6744 45.7433 16.0774 45.5089 16.6065C45.2745 17.1321 45.1573 17.7749 45.1573 18.5348C45.1573 19.2947 45.2727 19.9411 45.5036 20.4737C45.7344 21.0064 46.0611 21.413 46.4837 21.6935C46.9062 21.9705 47.4052 22.109 47.9805 22.109C48.5025 22.109 48.9482 22.0167 49.3175 21.832C49.6903 21.6438 49.9744 21.3793 50.1697 21.0384C50.3686 20.6974 50.468 20.2944 50.468 19.8292L50.9368 19.8984H48.1243V18.1619H52.6893V19.5362C52.6893 20.495 52.4869 21.3189 52.082 22.0078C51.6772 22.6932 51.1197 23.2223 50.4094 23.5952C49.6992 23.9645 48.886 24.1491 47.9698 24.1491C46.9471 24.1491 46.0487 23.9237 45.2745 23.4727C44.5004 23.0181 43.8967 22.3736 43.4634 21.5391C43.0337 20.701 42.8189 19.7067 42.8189 18.5561C42.8189 17.6719 42.9467 16.8835 43.2024 16.1911C43.4616 15.495 43.8239 14.9055 44.2891 14.4226C44.7543 13.9396 45.2958 13.5721 45.9137 13.32C46.5316 13.0678 47.201 12.9418 47.9219 12.9418C48.5398 12.9418 49.1151 13.0323 49.6477 13.2134C50.1804 13.391 50.6527 13.6431 51.0646 13.9698C51.4801 14.2965 51.8192 14.6854 52.082 15.1364C52.3448 15.5838 52.5135 16.0774 52.5881 16.6172H50.2443ZM58.0759 24.1598C57.2485 24.1598 56.5329 23.984 55.9292 23.6325C55.3291 23.2773 54.8657 22.7837 54.539 22.1516C54.2123 21.516 54.0489 20.7791 54.0489 19.9411C54.0489 19.0959 54.2123 18.3572 54.539 17.7251C54.8657 17.0895 55.3291 16.5959 55.9292 16.2443C56.5329 15.8892 57.2485 15.7116 58.0759 15.7116C58.9033 15.7116 59.6171 15.8892 60.2172 16.2443C60.8209 16.5959 61.2861 17.0895 61.6128 17.7251C61.9395 18.3572 62.1029 19.0959 62.1029 19.9411C62.1029 20.7791 61.9395 21.516 61.6128 22.1516C61.2861 22.7837 60.8209 23.2773 60.2172 23.6325C59.6171 23.984 58.9033 24.1598 58.0759 24.1598ZM58.0866 22.402C58.463 22.402 58.7773 22.2955 59.0294 22.0824C59.2815 21.8658 59.4715 21.571 59.5993 21.1982C59.7307 20.8253 59.7964 20.4009 59.7964 19.9251C59.7964 19.4492 59.7307 19.0249 59.5993 18.652C59.4715 18.2791 59.2815 17.9844 59.0294 17.7678C58.7773 17.5511 58.463 17.4428 58.0866 17.4428C57.7066 17.4428 57.387 17.5511 57.1278 17.7678C56.8721 17.9844 56.6785 18.2791 56.5471 18.652C56.4193 19.0249 56.3554 19.4492 56.3554 19.9251C56.3554 20.4009 56.4193 20.8253 56.5471 21.1982C56.6785 21.571 56.8721 21.8658 57.1278 22.0824C57.387 22.2955 57.7066 22.402 58.0866 22.402ZM65.9115 24.1545C65.3895 24.1545 64.9243 24.0639 64.5159 23.8828C64.1075 23.6982 63.7844 23.4265 63.5464 23.0678C63.3121 22.7056 63.1949 22.2546 63.1949 21.7148C63.1949 21.2603 63.2783 20.8786 63.4452 20.5696C63.6121 20.2607 63.8394 20.0121 64.127 19.8239C64.4147 19.6357 64.7414 19.4936 65.1072 19.3977C65.4765 19.3018 65.8635 19.2344 66.2684 19.1953C66.7442 19.1456 67.1278 19.0994 67.4189 19.0568C67.7101 19.0107 67.9214 18.9432 68.0528 18.8544C68.1842 18.7656 68.2499 18.6342 68.2499 18.4602V18.4283C68.2499 18.0909 68.1434 17.8299 67.9303 17.6452C67.7208 17.4606 67.4225 17.3683 67.0354 17.3683C66.627 17.3683 66.3021 17.4588 66.0606 17.6399C65.8192 17.8175 65.6594 18.0412 65.5812 18.3111L63.4825 18.1406C63.589 17.6435 63.7986 17.2138 64.1111 16.8516C64.4236 16.4858 64.8266 16.2053 65.3202 16.0099C65.8174 15.8111 66.3927 15.7116 67.0461 15.7116C67.5006 15.7116 67.9356 15.7649 68.3511 15.8714C68.7702 15.978 69.1412 16.1431 69.4644 16.3668C69.7911 16.5906 70.0486 16.8782 70.2368 17.2298C70.425 17.5778 70.5191 17.995 70.5191 18.4815V24H68.3671V22.8654H68.3032C68.1718 23.1211 67.996 23.3466 67.7758 23.5419C67.5557 23.7337 67.2911 23.8846 66.9822 23.9947C66.6732 24.1012 66.3163 24.1545 65.9115 24.1545ZM66.5613 22.5884C66.8952 22.5884 67.1899 22.5227 67.4456 22.3913C67.7013 22.2564 67.9019 22.0753 68.0475 21.848C68.1931 21.6207 68.2659 21.3633 68.2659 21.0756V20.2074C68.1949 20.2536 68.0972 20.2962 67.9729 20.3352C67.8522 20.3707 67.7155 20.4045 67.5628 20.4364C67.4101 20.4648 67.2574 20.4915 67.1047 20.5163C66.952 20.5376 66.8135 20.5572 66.6892 20.5749C66.4229 20.614 66.1903 20.6761 65.9914 20.7614C65.7925 20.8466 65.6381 20.962 65.528 21.1076C65.4179 21.2496 65.3628 21.4272 65.3628 21.6403C65.3628 21.9492 65.4747 22.1854 65.6984 22.3487C65.9257 22.5085 66.2133 22.5884 66.5613 22.5884ZM74.5487 13.0909V24H72.2796V13.0909H74.5487ZM77.6928 24.1385C77.3413 24.1385 77.0394 24.0142 76.7873 23.7656C76.5387 23.5135 76.4144 23.2116 76.4144 22.8601C76.4144 22.5121 76.5387 22.2138 76.7873 21.9652C77.0394 21.7166 77.3413 21.5923 77.6928 21.5923C78.0337 21.5923 78.332 21.7166 78.5877 21.9652C78.8434 22.2138 78.9712 22.5121 78.9712 22.8601C78.9712 23.0945 78.9109 23.3093 78.7901 23.5046C78.6729 23.6964 78.5185 23.8509 78.3267 23.968C78.1349 24.0817 77.9237 24.1385 77.6928 24.1385ZM80.8769 24V13.0909H88.0999V14.9925H83.1833V17.592H87.6205V19.4936H83.1833V24H80.8769ZM92.7048 24.1598C91.8774 24.1598 91.1618 23.984 90.5581 23.6325C89.958 23.2773 89.4946 22.7837 89.1679 22.1516C88.8412 21.516 88.6778 20.7791 88.6778 19.9411C88.6778 19.0959 88.8412 18.3572 89.1679 17.7251C89.4946 17.0895 89.958 16.5959 90.5581 16.2443C91.1618 15.8892 91.8774 15.7116 92.7048 15.7116C93.5322 15.7116 94.246 15.8892 94.8461 16.2443C95.4498 16.5959 95.915 17.0895 96.2417 17.7251C96.5684 18.3572 96.7318 19.0959 96.7318 19.9411C96.7318 20.7791 96.5684 21.516 96.2417 22.1516C95.915 22.7837 95.4498 23.2773 94.8461 23.6325C94.246 23.984 93.5322 24.1598 92.7048 24.1598ZM92.7155 22.402C93.0919 22.402 93.4062 22.2955 93.6583 22.0824C93.9104 21.8658 94.1004 21.571 94.2282 21.1982C94.3596 20.8253 94.4253 20.4009 94.4253 19.9251C94.4253 19.4492 94.3596 19.0249 94.2282 18.652C94.1004 18.2791 93.9104 17.9844 93.6583 17.7678C93.4062 17.5511 93.0919 17.4428 92.7155 17.4428C92.3355 17.4428 92.0159 17.5511 91.7567 17.7678C91.501 17.9844 91.3074 18.2791 91.176 18.652C91.0482 19.0249 90.9843 19.4492 90.9843 19.9251C90.9843 20.4009 91.0482 20.8253 91.176 21.1982C91.3074 21.571 91.501 21.8658 91.7567 22.0824C92.0159 22.2955 92.3355 22.402 92.7155 22.402ZM101.904 24.1598C101.066 24.1598 100.345 23.9822 99.7414 23.6271C99.1412 23.2685 98.6796 22.7713 98.3564 22.1357C98.0368 21.5 97.877 20.7685 97.877 19.9411C97.877 19.103 98.0386 18.3679 98.3618 17.7358C98.6885 17.1001 99.1519 16.6048 99.752 16.2496C100.352 15.891 101.066 15.7116 101.893 15.7116C102.607 15.7116 103.232 15.8413 103.768 16.1005C104.305 16.3597 104.729 16.7237 105.041 17.1925C105.354 17.6612 105.526 18.2116 105.558 18.8438H103.417C103.356 18.4354 103.197 18.1069 102.937 17.8583C102.682 17.6062 102.346 17.4801 101.931 17.4801C101.579 17.4801 101.272 17.576 101.009 17.7678C100.75 17.956 100.547 18.2312 100.402 18.5934C100.256 18.9556 100.184 19.3942 100.184 19.9091C100.184 20.4311 100.255 20.875 100.397 21.2408C100.542 21.6065 100.746 21.8853 101.009 22.0771C101.272 22.2688 101.579 22.3647 101.931 22.3647C102.19 22.3647 102.422 22.3114 102.628 22.2049C102.838 22.0984 103.01 21.9439 103.145 21.7415C103.284 21.5355 103.374 21.2887 103.417 21.0011H105.558C105.523 21.6261 105.352 22.1765 105.047 22.6523C104.745 23.1246 104.328 23.494 103.795 23.7603C103.262 24.0266 102.632 24.1598 101.904 24.1598ZM112.258 20.5163V15.8182H114.527V24H112.348V22.5138H112.263C112.078 22.9933 111.771 23.3786 111.342 23.6697C110.915 23.9609 110.395 24.1065 109.781 24.1065C109.234 24.1065 108.753 23.9822 108.337 23.7337C107.922 23.4851 107.597 23.1317 107.363 22.6737C107.132 22.2156 107.015 21.6669 107.011 21.0277V15.8182H109.28V20.6229C109.284 21.1058 109.413 21.4876 109.669 21.7681C109.925 22.0487 110.267 22.1889 110.697 22.1889C110.971 22.1889 111.226 22.1268 111.464 22.0025C111.702 21.8746 111.894 21.6864 112.039 21.4379C112.189 21.1893 112.261 20.8821 112.258 20.5163ZM123.15 18.1513L121.072 18.2791C121.037 18.1016 120.96 17.9418 120.843 17.7997C120.726 17.6541 120.571 17.5387 120.38 17.4535C120.191 17.3647 119.966 17.3203 119.703 17.3203C119.352 17.3203 119.055 17.3949 118.814 17.544C118.572 17.6896 118.451 17.8849 118.451 18.13C118.451 18.3253 118.53 18.4904 118.686 18.6254C118.842 18.7603 119.11 18.8686 119.49 18.9503L120.971 19.2486C121.766 19.4119 122.359 19.6747 122.75 20.0369C123.141 20.3991 123.336 20.875 123.336 21.4645C123.336 22.0007 123.178 22.4712 122.862 22.8761C122.549 23.2809 122.12 23.5969 121.573 23.8242C121.03 24.0479 120.403 24.1598 119.693 24.1598C118.609 24.1598 117.747 23.9343 117.104 23.4833C116.465 23.0288 116.09 22.4109 115.98 21.6296L118.212 21.5124C118.279 21.8427 118.443 22.0948 118.702 22.2688C118.961 22.4393 119.293 22.5245 119.698 22.5245C120.096 22.5245 120.415 22.4482 120.657 22.2955C120.902 22.1392 121.026 21.9386 121.03 21.6935C121.026 21.4876 120.939 21.3189 120.769 21.1875C120.598 21.0526 120.335 20.9496 119.98 20.8786L118.563 20.5962C117.764 20.4364 117.169 20.1594 116.779 19.7653C116.392 19.3711 116.198 18.8686 116.198 18.2578C116.198 17.7322 116.34 17.2795 116.624 16.8995C116.912 16.5195 117.315 16.2266 117.834 16.0206C118.356 15.8146 118.966 15.7116 119.666 15.7116C120.699 15.7116 121.513 15.93 122.106 16.3668C122.702 16.8036 123.05 17.3984 123.15 18.1513Z" fill="white"/>
<path d="M10.0339 31.1713C12.1144 31.1713 13.801 29.4848 13.801 27.4043C13.801 25.3238 12.1144 23.6372 10.0339 23.6372C7.95339 23.6372 6.26682 25.3238 6.26682 27.4043C6.26682 29.4848 7.95339 31.1713 10.0339 31.1713Z" fill="url(#paint3_linear_84_235)"/>
<path d="M27.8746 13.3305C29.9551 13.3305 31.6416 11.6439 31.6416 9.56346C31.6416 7.48296 29.9551 5.79639 27.8746 5.79639C25.7941 5.79639 24.1075 7.48296 24.1075 9.56346C24.1075 11.6439 25.7941 13.3305 27.8746 13.3305Z" fill="url(#paint4_linear_84_235)"/>
<defs>
<linearGradient id="paint0_linear_84_235" x1="31.4931" y1="6.63588" x2="6.77284" y2="29.9953" gradientUnits="userSpaceOnUse">
<stop stop-color="#F38856"/>
<stop offset="0.23" stop-color="#F0625C"/>
<stop offset="1" stop-color="#5C3DAB"/>
</linearGradient>
<linearGradient id="paint1_linear_84_235" x1="17.7983" y1="3.55168" x2="3.73735" y2="17.537" gradientUnits="userSpaceOnUse">
<stop stop-color="#F67986"/>
<stop offset="1" stop-color="#8951BA"/>
</linearGradient>
<linearGradient id="paint2_linear_84_235" x1="33.8799" y1="19.7196" x2="19.819" y2="33.7055" gradientUnits="userSpaceOnUse">
<stop stop-color="#F67986"/>
<stop offset="1" stop-color="#8951BA"/>
</linearGradient>
<linearGradient id="paint3_linear_84_235" x1="12.7842" y1="24.8306" x2="7.28288" y2="29.9779" gradientUnits="userSpaceOnUse">
<stop stop-color="#A267B9"/>
<stop offset="1" stop-color="#704BB4"/>
</linearGradient>
<linearGradient id="paint4_linear_84_235" x1="30.1644" y1="7.42022" x2="26.4087" y2="10.9349" gradientUnits="userSpaceOnUse">
<stop stop-color="#F7A8A5"/>
<stop offset="0.97" stop-color="#D074C4"/>
<stop offset="1" stop-color="#CF76A9"/>
</linearGradient>
</defs>
</svg>
